<svg xmlns="http://www.w3.org/2000/svg" width="600" height="399" viewBox="0 0 600 399">
  <g id="Page-1" fill="none" fill-rule="evenodd">
    <g id="Artboard" transform="translate(-60 -43)">
      <g id="cassette" transform="translate(59 43)">
        <g id="Page-1">
          <g id="cassette">
            <g id="center" transform="translate(46.902 35.982)">
              <rect id="center-light-gray" width="508.197" height="222.433" fill="#D8D8D8" rx="8"/>
              <rect id="white-bg" width="251.367" height="62.71" x="129.622" y="99.045" fill="#FFF"/>
              <g id="center-rounded" transform="translate(0 40)">
                <g id="tape" fill="#DB9845" transform="translate(43.71 .68)">
                  <circle id="tapeLeft" cx="90.389" cy="90.338" r="90"/>
                  <circle id="tapeRight" cx="330.389" cy="90.338" r="90"/>
                </g>
                <rect id="Rectangle-30" width="508" height="16" y="19.018" fill="#D8D8D8"/>
                <rect id="Rectangle-31" width="508" height="32" y="150.509" fill="#D8D8D8" rx="11"/>
                <path id="center-pink" fill="#E83B4D" d="M121.775381,35 L0,35 L0,151 L131.043319,151 C99.4456837,150.174648 74,124.25636 74,92.5101376 C74,63.9359067 94.614799,40.0831729 121.775381,35 L121.775381,35 Z M386.109358,35 L508,35 L508,151 L376.842076,151 C408.435993,150.174648 433.894247,124.25636 433.894247,92.5101376 C433.894247,63.9359067 413.269264,40.0831729 386.109358,35 L386.109358,35 Z"/>
                <path id="Fill-49" fill="#171D22" d="M187.544558,59.8433279 L321.288991,59.8433279 L321.288991,121.503708 L187.544558,121.503708 L187.544558,59.8433279 L187.544558,59.8433279 L187.544558,59.8433279 L187.544558,59.8433279 Z M376.078167,34 L132.751042,34 C100.353134,34 74,60.2450746 74,92.5101376 C74,124.775201 100.353134,151.020276 132.751042,151.020276 L376.078167,151.020276 C408.471736,151.020276 434.837888,124.775201 434.837888,92.5101376 C434.837888,60.2450746 408.471736,34 376.078167,34 L376.078167,34 L376.078167,34 L376.078167,34 L376.078167,34 Z" opacity=".9"/>
              </g>
              <g id="wheels" fill="#FFFDFD" transform="translate(104 101)">
                <path id="wheelRight" d="M257.722506,57.3066462 L260.619115,52.2970017 L255.178132,49.1680406 L252.314674,54.1156845 C248.398658,51.2181921 245.220262,47.4113583 243.086136,42.9886523 L248.361362,41.0707686 L246.218949,35.1848496 L240.972731,37.0861998 C240.417444,34.8169797 240.098361,32.4568253 240.098361,30.018137 C240.098361,27.5009146 240.438163,25.070493 241.026602,22.7351389 L246.218949,24.6199557 L248.361362,18.7299033 L243.177303,16.8533533 C245.328004,12.4761144 248.502256,8.71061427 252.405841,5.85032218 L255.178132,10.6367647 L260.619115,7.51193695 L257.821961,2.6841607 C261.592939,0.989478969 265.761735,0.018137 270.166736,0.018137 C270.796614,0.018137 271.409916,0.071870811 272.031505,0.113204512 L271.049393,5.67672063 L277.236285,6.75553022 L278.222541,1.14241366 C283.03779,2.47335883 287.359912,4.96164761 290.878111,8.29727726 L286.406808,12.0379772 L290.430566,16.8409532 L294.964028,13.0506528 C297.711456,17.0310882 299.51821,21.7100632 300.069353,26.7651748 L294.068939,26.7651748 L294.068939,33.0313638 L300.098361,33.0313638 C299.588657,38.115409 297.806766,42.8191841 295.075915,46.8368198 L290.430566,42.9555853 L286.406808,47.7626947 L291.010717,51.6149956 C287.480086,55.0043591 283.124813,57.5298482 278.272268,58.8814602 L277.236285,53.0410083 L271.049393,54.132218 L272.072945,59.9189361 C271.443067,59.9602698 270.809045,60.018137 270.166736,60.018137 C265.72444,60.018137 261.518348,59.0343949 257.722506,57.3066462 L257.722506,57.3066462 L257.722506,57.3066462 Z"/>
                <path id="wheelLeft" d="M17.7225063,57.3066462 L20.6191152,52.2970017 L15.1781317,49.1680406 L12.3146743,54.1156846 C8.39865799,51.2181921 5.22026169,47.4113583 3.0861364,42.9886523 L8.36136259,41.0707686 L6.21894944,35.1848496 L0.972730775,37.0861998 C0.417443805,34.8169797 0.098361,32.4568254 0.098361,30.018137 C0.098361,27.5009146 0.438163475,25.070493 1.02660191,22.7351389 L6.21894944,24.6199557 L8.36136259,18.7299033 L3.17730292,16.8533533 C5.32800394,12.4761144 8.5022563,8.71061426 12.4058408,5.85032217 L15.1781317,10.6367647 L20.6191152,7.51193694 L17.8219607,2.68416069 C21.5929393,0.989478963 25.7617355,0.018137 30.1667359,0.018137 C30.7966136,0.018137 31.4099157,0.071870811 32.0315055,0.113204512 L31.0493935,5.67672063 L37.2362849,6.75553022 L38.2225408,1.14241366 C43.0377905,2.47335882 47.3599122,4.96164761 50.878111,8.29727726 L46.4068077,12.0379772 L50.4305662,16.8409532 L54.9640285,13.0506529 C57.7114558,17.0310882 59.5182104,21.7100632 60.0693535,26.7651748 L54.0689391,26.7651748 L54.0689391,33.0313638 L60.098361,33.0313638 C59.5886573,38.115409 57.8067663,42.8191841 55.0759147,46.8368198 L50.4305662,42.9555853 L46.4068077,47.7626947 L51.0107168,51.6149957 C47.4800862,55.0043591 43.1248131,57.5298482 38.272268,58.8814602 L37.2362849,53.0410083 L31.0493935,54.132218 L32.0729449,59.9189361 C31.4430671,59.9602698 30.8090454,60.018137 30.1667359,60.018137 C25.7244401,60.018137 21.5183486,59.0343949 17.7225063,57.3066462 L17.7225063,57.3066462 L17.7225063,57.3066462 Z"/>
              </g>
              <g id="Label" transform="translate(19.067 15.61)">
                <rect id="label-bg" width="471.975" height="43.949" fill="#FFF" rx="4"/>
                <g id="lines" stroke="#EFEFF0" transform="translate(15.287 13.376)">
                  <path id="Line-2" d="M0.904032507,0.955414013 L442.071896,0.955414013"/>
                  <path id="Line-3" d="M0.904032507,18.1528662 L442.071896,18.1528662"/>
                </g>
              </g>
            </g>
            <g id="timebox" transform="translate(234 178)">
              <rect id="timebox-bg" width="135" height="20" fill="#0A0D10"/>
              <text id="recordingText" fill="#36C77C" font-family="Helvetica" font-size="13">
                <tspan x="21.234" y="15">Ready!</tspan>
              </text>
            </g>
            <g id="tracktitlebox" fill="#E83B4D" font-family="Helvetica" font-size="13" transform="translate(85 66)">
              <g id="tracktitle">
                <text id="Song.mp3">
                  <tspan x=".369" y="13">Song.mp3</tspan>
                </text>
              </g>
            </g>
            <g id="background" transform="translate(.279)">
              <rect id="white-bg-buttons" width="529" height="20" x="36.721" y="379" fill="#FFF"/>
              <path id="Rectangle-97" fill="#2F3B46" d="M4,13.0064217 C4,5.82317337 9.82565271,0 16.9991074,0 L584.443516,0 C591.622724,0 597.442623,5.82721586 597.442623,13.0064217 L597.442623,366.438682 C597.442623,373.621931 591.61697,379.445104 584.443516,379.445104 L16.9991074,379.445104 C9.81989864,379.445104 4,373.617888 4,366.438682 L4,13.0064217 L4,13.0064217 Z M46.62295,43.9803983 C46.62295,39.5629293 50.2090087,35.981863 54.6311012,35.981863 L546.81152,35.981863 C551.2343,35.981863 554.819671,39.5658526 554.819671,43.9803983 L554.819671,250.416665 C554.819671,254.834134 551.233612,258.4152 546.81152,258.4152 L54.6311012,258.4152 C50.2083214,258.4152 46.62295,254.83121 46.62295,250.416665 L46.62295,43.9803983 L46.62295,43.9803983 Z"/>
              <g id="Buttons-Section" fill="#171D22" transform="translate(92.607 280.945)">
                <path id="Dark-Gray-Bg" d="M0.274624183,99.5649184 C0.0776841932,100.652981 0.818843031,101.53503 1.91433423,101.53503 L414.315174,101.53503 C415.417701,101.53503 416.153604,100.662816 415.954884,99.5649184 L398.406608,2.61342407 C398.209668,1.52536127 397.153259,0.643312102 396.051726,0.643312102 L20.177782,0.643312102 C19.0741568,0.643312102 18.0216204,1.51552683 17.8229003,2.61342407 L0.274624183,99.5649184 L0.274624183,99.5649184 L0.274624183,99.5649184 L0.274624183,99.5649184 Z"/>
              </g>
              <rect id="Rectangle-152" width="27.869" height="101.403" x="572.852" y="242.06" fill="#2F3B46" rx="2"/>
              <rect id="Rectangle-153" width="27.869" height="101.403" x=".721" y="242.06" fill="#2F3B46" rx="2"/>
              <g id="A" transform="translate(48.262 281.77)">
                <rect id="Rectangle-151" width="36.066" height="35.982" fill="#1D252C" rx="3"/>
                <path fill="#2F3B46" d="M9,27.0999633 L13.0749917,27.0999633 L14.5499888,23.299971 L21.849974,23.299971 L23.299971,27.0999633 L27.5499624,27.0999633 L20.1999773,9 L16.3499851,9 L9,27.0999633 L9,27.0999633 L9,27.0999633 Z M16.4999848,18.2499813 C17.0749836,16.7249843 17.7249823,14.924988 18.1999814,13.5499908 L18.2499813,13.5499908 C18.7249803,14.924988 19.374979,16.7249843 19.8999779,18.1499815 L20.6499764,20.1749774 L15.7749863,20.1749774 L16.4999848,18.2499813 L16.4999848,18.2499813 L16.4999848,18.2499813 Z"/>
              </g>
              <g id="screws" transform="translate(13.721 9)">
                <g id="Oval-8-+-Line-+-Line-4" transform="translate(555.852 .813)">
                  <ellipse id="Oval-8" cx="9.016" cy="8.995" fill="#171D22" rx="9.016" ry="8.995"/>
                  <path id="Line" stroke="#33BD76" stroke-width="2" d="M9.01639344,8.99546583 L4.23497268,4.22514304 L9.01639344,8.99546583 L13.7978142,4.22514304 L9.01639344,8.99546583 L9.01639344,8.99546583 L9.01639344,8.99546583 L9.01639344,8.99546583 Z M9.01639344,8.99546583 L13.7978142,13.7657886 L9.01639344,8.99546583 L4.23497268,13.7657886 L9.01639344,8.99546583 L9.01639344,8.99546583 L9.01639344,8.99546583 L9.01639344,8.99546583 Z"/>
                </g>
                <g id="Oval-8-+-Line-+-Line-5" transform="translate(555.852 341.005)">
                  <ellipse id="Oval-8" cx="9.016" cy="8.995" fill="#171D22" rx="9.016" ry="8.995"/>
                  <path id="Line" stroke="#33BD76" stroke-width="2" d="M9.01639344,8.99546583 L4.23497268,4.22514304 L9.01639344,8.99546583 L13.7978142,4.22514304 L9.01639344,8.99546583 L9.01639344,8.99546583 L9.01639344,8.99546583 L9.01639344,8.99546583 Z M9.01639344,8.99546583 L13.7978142,13.7657886 L9.01639344,8.99546583 L4.23497268,13.7657886 L9.01639344,8.99546583 L9.01639344,8.99546583 L9.01639344,8.99546583 L9.01639344,8.99546583 Z"/>
                </g>
                <g id="Oval-8-+-Line-+-Line-6" transform="translate(.115 341.005)">
                  <ellipse id="Oval-8" cx="9.016" cy="8.995" fill="#171D22" rx="9.016" ry="8.995"/>
                  <path id="Line" stroke="#33BD76" stroke-width="2" d="M9.01639344,8.99546583 L4.23497268,4.22514304 L9.01639344,8.99546583 L13.7978142,4.22514304 L9.01639344,8.99546583 L9.01639344,8.99546583 L9.01639344,8.99546583 L9.01639344,8.99546583 Z M9.01639344,8.99546583 L13.7978142,13.7657886 L9.01639344,8.99546583 L4.23497268,13.7657886 L9.01639344,8.99546583 L9.01639344,8.99546583 L9.01639344,8.99546583 L9.01639344,8.99546583 Z"/>
                </g>
                <g id="Oval-8-+-Line-+-Line-3" transform="translate(.115 .813)">
                  <ellipse id="Oval-8" cx="9.016" cy="8.995" fill="#171D22" rx="9.016" ry="8.995"/>
                  <path id="Line" stroke="#33BD76" stroke-width="2" d="M9.01639344,8.99546583 L4.23497268,4.22514304 L9.01639344,8.99546583 L13.7978142,4.22514304 L9.01639344,8.99546583 L9.01639344,8.99546583 L9.01639344,8.99546583 L9.01639344,8.99546583 Z M9.01639344,8.99546583 L13.7978142,13.7657886 L9.01639344,8.99546583 L4.23497268,13.7657886 L9.01639344,8.99546583 L9.01639344,8.99546583 L9.01639344,8.99546583 L9.01639344,8.99546583 Z"/>
                </g>
              </g>
            </g>
            <g id="buttons" transform="translate(134.656 285.32)">
              <g id="forwardBtn" transform="translate(253.344 .68)">
                <rect id="Rectangle-11" width="78.689" height="94.861" fill="#2F3B46" rx="1"/>
                <g id="Rectangle-12-+-Rectangle-13-+-Rectangle-14" fill="#171D22" transform="translate(8.197 62.786)">
                  <rect id="Rectangle-12" width="61.94" height="5.991" y="18.426" fill-opacity=".5"/>
                  <rect id="Rectangle-13" width="61.94" height="5.991" y="9.69" fill-opacity=".4"/>
                  <rect id="Rectangle-13" width="61.94" height="5.991" y=".954" fill-opacity=".3"/>
                </g>
                <g id="skip-forward" fill="#D8D8D8" transform="translate(27 20)">
                  <path d="M23.2409626,0 L22.7367376,0 C22.3196626,0 21.9772876,0.311250001 21.9772876,0.728325003 L21.9772876,7.79370003 L10.3303125,0.168075001 C10.1746875,0.0622500002 10.0128375,0.0249000001 9.82608754,0.0249000001 C9.30941254,0.0249000001 8.86743753,0.460650002 8.86743753,1.08315 L8.86743753,5.01112502 L1.49081251,0.143175001 C1.3351875,0.0373500001 1.1733375,0 0.986587504,0 C0.469912502,0 0.0590625,0.460650002 0.0590625,1.08315 L0.0590625,18.8866501 C0.0590625,19.5091501 0.476137502,19.9137751 0.992812504,19.9137751 C1.1857875,19.9137751 1.3289625,19.8390751 1.50326251,19.7332501 L8.86743753,14.9026501 L8.86743753,18.8866501 C8.86743753,19.5091501 9.31563754,19.9137751 9.83231254,19.9137751 C10.0252875,19.9137751 10.1746875,19.8390751 10.3427625,19.7332501 L21.9772876,12.1263 L21.9772876,19.1605501 C21.9772876,19.5776251 22.3134376,19.9200001 22.7367376,19.9200001 L23.2409626,19.9200001 C23.6580376,19.9200001 23.9692876,19.5776251 23.9692876,19.1605501 L23.9692876,0.728325003 C23.9692876,0.311250001 23.6642626,0 23.2409626,0 L23.2409626,0 Z"/>
                </g>
              </g>
              <g id="playPauseBtn" transform="translate(169.344 .68)">
                <rect id="Rectangle-10" width="78.689" height="94.861" fill="#2F3B46" rx="1"/>
                <g fill="#171D22" transform="translate(8.197 62.786)">
                  <rect width="62.295" height="5.858" y="18.04" fill-opacity=".5"/>
                  <rect width="62.295" height="5.858" y="9.497" fill-opacity=".4"/>
                  <rect width="62.295" height="5.858" y=".955" fill-opacity=".3"/>
                </g>
                <g id="playIcon" fill="#36C77C" transform="translate(30.573 20.02)">
                  <path d="M16.6657842,9.94403291 L1.46683868,1.09447922 C0.842652008,0.732308874 0.0624186672,1.18895844 0.0624186672,1.91329914 L0.0624186672,19.6281531 C0.0624186672,20.3524937 0.842652008,20.8091433 1.46683868,20.446973 L16.6657842,11.5974193 C17.2899708,11.2195024 17.2899708,10.3062033 16.6657842,9.94403291 L16.6657842,9.94403291 L16.6657842,9.94403291 L16.6657842,9.94403291 L16.6657842,9.94403291 Z"/>
                </g>
                <g id="pauseIcon" fill="#D8D8D8" transform="translate(29 20)">
                  <path d="M19.0333333 19.984C19.5833333 19.984 20.0333333 19.552 20.0333333 19.024L20.0333333 1.024C20.0333333.496 19.5833333.064 19.0333333.064L13.0333333.064C12.4833333.064 12.0333333.496 12.0333333 1.024L12.0333333 19.024C12.0333333 19.552 12.4833333 19.984 13.0333333 19.984L19.0333333 19.984 19.0333333 19.984 19.0333333 19.984zM7 19.984C7.55 19.984 8 19.552 8 19.024L8 1.024C8 .496 7.55.064 7 .064L1 .064C.45.064 0 .496 0 1.024L0 19.024C0 19.552.45 19.984 1 19.984L7 19.984 7 19.984 7 19.984z"/>
                </g>
              </g>
              <g id="backwardBtn" transform="translate(84.344 .68)">
                <rect id="Rectangle-9" width="78.689" height="94.861" fill="#2F3B46" rx="1"/>
                <g id="skip-backward" fill="#D8D8D8" transform="translate(27 20)">
                  <path d="M0.716990647,0 L1.21336879,0 C1.62395318,0 1.96100006,0.30640626 1.96100006,0.716990647 L1.96100006,7.67241274 L13.4267223,0.16545938 C13.5799254,0.0612812519 13.7392567,0.0245125008 13.9231004,0.0245125008 C14.4317348,0.0245125008 14.8668317,0.453481264 14.8668317,1.06629378 L14.8668317,4.93314078 L22.1286601,0.140946879 C22.2818632,0.0367687511 22.4350663,0 22.6250382,0 C23.1336726,0 23.5381289,0.453481264 23.5381289,1.06629378 L23.5381289,18.5927318 C23.5381289,19.2055443 23.1275445,19.6038725 22.6189101,19.6038725 C22.4289382,19.6038725 22.2879913,19.530335 22.1164038,19.4261569 L14.8668317,14.6707317 L14.8668317,18.5927318 C14.8668317,19.2055443 14.4256067,19.6038725 13.9169723,19.6038725 C13.7270004,19.6038725 13.5799254,19.530335 13.414466,19.4261569 L1.96100006,11.9375879 L1.96100006,18.8623693 C1.96100006,19.2729537 1.6300813,19.6100006 1.21336879,19.6100006 L0.716990647,19.6100006 C0.30640626,19.6100006 -5.68434189e-13,19.2729537 -5.68434189e-13,18.8623693 L-5.68434189e-13,0.716990647 C-5.68434189e-13,0.30640626 0.300278134,0 0.716990647,0 L0.716990647,0 Z"/>
                </g>
                <g id="Rectangle-12-+-Rectangle-13-+-Rectangle-14" fill="#171D22" transform="translate(8.197 62.786)">
                  <rect width="62.295" height="5.858" y="18.04" fill-opacity=".5"/>
                  <rect width="62.295" height="5.858" y="9.497" fill-opacity=".4"/>
                  <rect width="62.295" height="5.858" y=".955" fill-opacity=".3"/>
                </g>
              </g>
              <g id="recBtn" transform="translate(.344 .68)">
                <g>
                  <g id="path-1-link" fill="#E83B4E">
                    <rect id="path-1" width="78.689" height="94.861" rx="1"/>
                  </g>
                  <rect id="path-1" width="78.689" height="94.861" rx="1"/>
                </g>
                <g fill="#171D22" transform="translate(8.197 62.786)">
                  <rect width="62.295" height="5.858" y="18.04" fill-opacity=".5"/>
                  <rect width="62.295" height="5.858" y="9.497" fill-opacity=".4"/>
                  <rect width="62.295" height="5.858" y=".955" fill-opacity=".3"/>
                </g>
                <ellipse id="Oval-1" cx="40.125" cy="32.675" fill="#492028" rx="11.463" ry="11.656"/>
              </g>
            </g>
          </g>
        </g>
      </g>
    </g>
  </g>
</svg>
